<svg width="246.8650390625px" height="81.22124023437499px" xmlns="http://www.w3.org/2000/svg" viewBox="126.56748046875 34.389379882812506 246.8650390625 81.22124023437499" style="background: rgba(0, 0, 0, 0);" preserveAspectRatio="xMidYMid"><defs><filter id="editing-extrusion" x="-100%" y="-100%" width="300%" height="300%"><feFlood result="color1" flood-color="#444"></feFlood><feConvolveMatrix order="2,2" divisor="1" kernelMatrix="1 0 0 1" in="SourceAlpha" result="extrude"></feConvolveMatrix><feComposite in="color1" in2="extrude" result="comp-extrude" operator="in"></feComposite><feOffset dx="1" dy="1" in="comp-extrude" result="offset-extrude"></feOffset><feMerge><feMergeNode in="offset-extrude"></feMergeNode><feMergeNode in="SourceGraphic"></feMergeNode></feMerge></filter></defs><g filter="url(#editing-extrusion)"><g transform="translate(166.67500212788582, 87.88593673706055)"><path d="M13.07 0.46L13.07 0.46Q7.03 0.46 3.75-2.71L3.75-2.71L3.75-2.71Q0.46-5.87 0.46-12.84L0.46-12.84L0.46-12.84Q0.46-19.80 3.75-22.97L3.75-22.97L3.75-22.97Q7.03-26.14 13.07-26.14L13.07-26.14L13.07-26.14Q19.11-26.14 22.39-22.97L22.39-22.97L22.39-22.97Q25.67-19.80 25.67-12.84L25.67-12.84L25.67-12.84Q25.67-5.87 22.39-2.71L22.39-2.71L22.39-2.71Q19.11 0.46 13.07 0.46L13.07 0.46ZM13.07-5.41L13.07-5.41Q14.19-5.41 14.75-6.01L14.75-6.01L14.75-6.01Q15.31-6.60 15.31-7.85L15.31-7.85L15.31-17.82L15.31-17.82Q15.31-19.07 14.75-19.67L14.75-19.67L14.75-19.67Q14.19-20.26 13.07-20.26L13.07-20.26L13.07-20.26Q11.95-20.26 11.38-19.67L11.38-19.67L11.38-19.67Q10.82-19.07 10.82-17.82L10.82-17.82L10.82-7.85L10.82-7.85Q10.82-6.57 11.38-5.99L11.38-5.99L11.38-5.99Q11.95-5.41 13.07-5.41L13.07-5.41ZM47.22 0L26.80 0L26.80-5.41L28.45-5.41L28.45-20.26L26.80-20.26L26.80-25.67L40.72-25.67L40.72-20.26L37.69-20.26L37.69-5.41L40.66-5.41L40.66-8.45L47.22-8.45L47.22 0ZM48.34 0L48.34-5.41L50.00-5.41L50.00-20.23L48.34-20.23L48.34-25.67L61.74-25.67L61.74-25.67Q67.25-25.67 70.50-22.65L70.50-22.65L70.50-22.65Q73.75-19.64 73.75-12.84L73.75-12.84L73.75-12.84Q73.75-6.04 70.50-3.02L70.50-3.02L70.50-3.02Q67.25 0 61.74 0L61.74 0L48.34 0ZM59.23-5.41L61.15-5.41L61.15-5.41Q62.27-5.41 62.83-6.01L62.83-6.01L62.83-6.01Q63.39-6.60 63.39-7.85L63.39-7.85L63.39-17.82L63.39-17.82Q63.39-20.26 61.15-20.26L61.15-20.26L59.23-20.26L59.23-5.41ZM109.66-13.17L109.66-8.25L108.01-8.25L108.01-1.65L108.01-1.65Q106.56-0.83 103.77-0.18L103.77-0.18L103.77-0.18Q100.98 0.46 97.75 0.46L97.75 0.46L97.75 0.46Q91.58 0.46 88.08-2.79L88.08-2.79L88.08-2.79Q84.58-6.04 84.58-12.84L84.58-12.84L84.58-12.84Q84.58-19.80 88.06-22.97L88.06-22.97L88.06-22.97Q91.54-26.14 98.01-26.14L98.01-26.14L98.01-26.14Q101.15-26.14 103.88-25.48L103.88-25.48L103.88-25.48Q106.62-24.82 108.01-23.99L108.01-23.99L108.01-16.10L99.76-16.10L99.76-17.66L99.76-17.66Q99.76-19.04 99.18-19.65L99.18-19.65L99.18-19.65Q98.60-20.26 97.35-20.26L97.35-20.26L97.35-20.26Q96.10-20.26 95.52-19.65L95.52-19.65L95.52-19.65Q94.94-19.04 94.94-17.66L94.94-17.66L94.94-8.02L94.94-8.02Q94.94-6.63 95.52-6.02L95.52-6.02L95.52-6.02Q96.10-5.41 97.35-5.41L97.35-5.41L97.35-5.41Q98.60-5.41 99.18-6.02L99.18-6.02L99.18-6.02Q99.76-6.63 99.76-8.02L99.76-8.02L99.76-8.25L97.98-8.25L97.98-13.17L109.66-13.17ZM122.92 0.46L122.92 0.46Q117.74 0.46 114.92-1.82L114.92-1.82L114.92-1.82Q112.10-4.09 112.10-9.21L112.10-9.21L112.10-20.26L110.45-20.26L110.45-25.67L122.66-25.67L122.66-20.26L121.34-20.26L121.34-7.52L121.34-7.52Q121.34-6.44 121.82-5.92L121.82-5.92L121.82-5.92Q122.30-5.41 123.25-5.41L123.25-5.41L123.25-5.41Q124.21-5.41 124.69-5.92L124.69-5.92L124.69-5.92Q125.17-6.44 125.17-7.52L125.17-7.52L125.17-20.26L123.85-20.26L123.85-25.67L135.17-25.67L135.17-20.26L133.52-20.26L133.52-9.21L133.52-9.21Q133.52-4.09 130.78-1.82L130.78-1.82L130.78-1.82Q128.04 0.46 122.92 0.46L122.92 0.46ZM155.36-20.26L155.36-25.67L166.19-25.67L166.19-20.26L164.54-20.26L164.54 0L155.26 0L145.60-14.88L145.60-5.41L147.18-5.41L147.18 0L136.36 0L136.36-5.41L138.01-5.41L138.01-20.26L136.36-20.26L136.36-25.67L148.27-25.67L156.95-12.44L156.95-20.26L155.36-20.26Z" fill="#ccc"></path></g></g><style>text {
  font-size: 64px;
  font-family: Arial Black;
  dominant-baseline: central;
  text-anchor: middle;
}</style></svg>